# AST/ASF file generated using VICON BodyLanguage
# -----------------------------------------------
:version 1.10
:name VICON
:units
  mass 1.0
  length 0.45
  angle deg
:documentation
   .ast/.asf automatically generated from VICON data using
   VICON BodyBuilder and BodyLanguage model FoxedUp or BRILLIANT.MOD
:root
   order TX TY TZ RX RY RZ
   axis XYZ
   position 0 0 0  
   orientation 0 0 0 
:bonedata
  begin
     id 1 
     name lhipjoint
     direction 0.623529 -0.717805 0.309788 
     length 2.23224 
     axis 0 0 0  XYZ
  end
  begin
     id 2 
     name lfemur
     direction 0.34202 -0.939693 0  
     length 7.11402  
     axis 0 0 20  XYZ
    dof rx ry rz
    limits (-160.0 20.0)
           (-70.0 70.0)
           (-60.0 70.0)
  end
  begin
     id 3 
     name ltibia
     direction 0.34202 -0.939693 0   
     length 6.78496   
     axis 0 0 20   XYZ
    dof rx
    limits (-10.0 170.0)
  end
  begin
     id 4 
     name lfoot
     direction 0.125078 -0.343648 0.930732   
     length 1.84054   
     axis -90 7.62852e-016 20   XYZ
    dof rx rz
    limits (-45.0 90.0)
           (-70.0 20.0)
  end
  begin
     id 5 
     name ltoes
     direction 1.53565e-011 -4.21893e-011 1   
     length 0.916474   
     axis -90 7.62852e-016 20   XYZ
    dof rx
    limits (-90.0 20.0)
  end
  begin
     id 6 
     name rhipjoint
     direction -0.564688 -0.757748 0.327026   
     length 2.11457  
     axis 0 0 0  XYZ 
  end
  begin
     id 7 
     name rfemur
     direction -0.34202 -0.939693 0   
     length 7.14609   
     axis 0 0 -20   XYZ
    dof rx ry rz
    limits (-160.0 20.0)
           (-70.0 70.0)
           (-70.0 60.0)
  end
  begin
     id 8 
     name rtibia
     direction -0.34202 -0.939693 0   
     length 6.78101   
     axis 0 0 -20   XYZ
    dof rx
    limits (-10.0 170.0)
 end
 begin
     id 9 
     name rfoot
     direction -0.0992671 -0.272734 0.956955   
     length 1.96168  
     axis -90 -7.62852e-016 -20   XYZ
    dof rx rz
    limits (-45.0 90.0)
           (-20.0 70.0)
  end
  begin
     id 10 
     name rtoes
     direction -1.5356e-011 -4.21891e-011 1   
     length 0.982933   
     axis -90 -7.62852e-016 -20   XYZ
    dof rx
    limits (-90.0 20.0)
  end
  begin
     id 11 
     name lowerback
     direction -0.00596953 0.998668 0.0512524   
     length 1.87557   
     axis 0 0 0   XYZ
    dof rx ry rz
    limits (-20.0 45.0)
           (-30.0 30.0)
           (-30.0 30.0)
  end
  begin
     id 12 
     name upperback
     direction 0.00584879 0.999652 0.0257308   
     length 1.87883   
     axis 0 0 0   XYZ
    dof rx ry rz
    limits (-20.0 45.0)
           (-30.0 30.0)
           (-30.0 30.0)
  end
  begin
     id 13 
     name thorax
     direction 0.010104 0.999947 0.00178881   
     length 1.87779   
     axis 0 0 0   XYZ
    dof rx ry rz
    limits (-20.0 45.0)
           (-30.0 30.0)
           (-30.0 30.0)
  end
  begin
     id 14 
     name lowerneck
     direction 0.0120771 0.995934 -0.0892773   
     length 1.40897   
     axis 0 0 0   XYZ
    dof rx ry rz
    limits (-20.0 45.0)
           (-30.0 30.0)
           (-30.0 30.0)
  end
  begin
     id 15 
     name upperneck
     direction -0.030568 0.999465 -0.0116366   
     length 1.38661   
     axis 0 0 0   XYZ
    dof rx ry rz
    limits (-20.0 45.0)
           (-30.0 30.0)
           (-30.0 30.0)
  end
  begin
     id 16
     name head
     direction -0.0170715 0.999854 -0.00104426  
     length 1.47052  
     axis 0 0 0   XYZ
    dof rx ry rz
    limits (-20.0 45.0)
           (-30.0 30.0)
           (-30.0 30.0)
  end
  begin
     id 17 
     name lclavicle
     direction 0.977763 0.206143 0.038532  
     length 3.02424  
     axis 0 0 0   XYZ
    dof ry rz
    limits (-20.0 10.0)
           (0.0 20.0)
  end
  begin
     id 18 
     name lhumerus
     direction 1 -4.48965e-011 -2.62654e-027   
     length 4.68382   
     axis 180 -30 -90   XYZ
    dof rx ry rz
    limits (-60.0 90.0)
           (-90.0 90.0)
           (-90.0 90.0)
  end
  begin
     id 19
     name lradius
     direction 1 -4.48973e-011 -1.54954e-027   
     length 2.98124   
     axis 180 -30 -90   XYZ
    dof rx
    limits (-10.0 170.0)
  end
  begin
     id 20
     name lwrist
     direction 1 -4.48959e-011 7.20928e-028   
     length 1.49062   
     axis -5.52449e-016 90 90   XYZ
    dof ry
    limits (-180.0 0.0)
 end
  begin
     id 21 
     name lhand
     direction 1 -4.48971e-011 1.44186e-027   
     length 0.707595   
     axis -9.20027e-016 90 90   XYZ
    dof rx rz
    limits (-90.0 90.0)
           (-45.0 45.0)
  end
  begin
     id 22 
     name lfingers
     direction 1 -4.48985e-011 2.88371e-027   
     length 0.570481   
     axis -1.84005e-015 90 90   XYZ
    dof rx
    limits (0.0 90.0)
  end
  begin
     id 23
     name lthumb
     direction 0.707107 -6.34929e-011 0.707107   
     length 0.819101   
     axis -90 45 2.85299e-015   XYZ
    dof rx rz
    limits (-45.0 45.0)
           (-45.0 45.0)
  end
  begin
     id 24 
     name rclavicle
     direction -0.958661 0.284411 -0.00895327   
     length 3.11921  
     axis 0 0 0   XYZ 
    dof ry rz
    limits (-10.0 20.0)
           (-20.0 0.0)
  end
  begin
     id 25 
     name rhumerus
     direction -1 -4.48963e-011 -4.22193e-027  
     length 4.75876   
     axis 180 30 90   XYZ
    dof rx ry rz
    limits (-90.0 60.0)
           (-90.0 90.0)
           (-90.0 90.0)
  end
  begin
     id 26 
     name rradius
     direction -1 -4.48968e-011 -1.07616e-027   
     length 2.93293   
     axis 180 30 90   XYZ
    dof rx
    limits (-10.0 170.0)
  end
  begin
     id 27 
     name rwrist
     direction -1 -4.48965e-011 7.20928e-028   
     length 1.46647   
     axis -5.52449e-016 -90 -90   XYZ
    dof ry
    limits (-180.0 0.0)
  end
  begin
     id 28
     name rhand
     direction -1 -4.48971e-011 1.44186e-027   
     length 0.831748   
     axis -9.20027e-016 -90 -90   XYZ
    dof rx rz
    limits (-90.0 90.0)
           (-45.0 45.0)
  end
  begin
     id 29
     name rfingers
     direction -1 -4.48961e-011 2.88371e-027   
     length 0.670577   
     axis -1.84005e-015 -90 -90   XYZ
    dof rx
    limits (0.0 90.0)
  end
  begin
     id 30
     name rthumb
     direction -0.707107 -6.34929e-011 0.707107   
     length 0.962818   
     axis -90 -45 -2.85299e-015   XYZ
    dof rx rz
    limits (-45.0 45.0)
           (-45.0 45.0)
  end
:hierarchy
  begin
    root lhipjoint rhipjoint lowerback
    lhipjoint lfemur
    lfemur ltibia
    ltibia lfoot
    lfoot ltoes
    rhipjoint rfemur
    rfemur rtibia
    rtibia rfoot
    rfoot rtoes
    lowerback upperback
    upperback thorax
    thorax lowerneck lclavicle rclavicle
    lowerneck upperneck
    upperneck head
    lclavicle lhumerus
    lhumerus lradius
    lradius lwrist
    lwrist lhand lthumb
    lhand lfingers
    rclavicle rhumerus
    rhumerus rradius
    rradius rwrist
    rwrist rhand rthumb
    rhand rfingers
  end

#!OML:ASF E:\id_vita\Project 1\Capture day 1\Session 1\Female.ASF
:FULLY-SPECIFIED
:DEGREES
79
root -24.0804 16.3965 2.06472 -166.984 2.78947 -176.903
lowerback -13.2243 -1.5061 -4.75905
upperback -4.83799 -0.899566 2.38377
thorax 2.44008 -0.154142 5.07092
lowerneck 12.2717 -0.238303 -7.62191
upperneck -9.46001 7.8773 36.2752
head -7.1088 3.64445 13.3375
rclavicle 8.15017e-015 -1.38155e-014
rhumerus -34.1209 -11.0605 -86.4587
rradius 27.3279
rwrist 14.6558
rhand -4.8653 6.29348
rfingers 7.12502
rthumb 20.9228 -22.5981
lclavicle 8.15017e-015 -1.38155e-014
lhumerus -35.6028 31.5144 75.0028
lradius 13.6656
lwrist -58.3849
lhand 11.2734 23.299
lfingers 7.12502
lthumb 36.3331 49.533
rfemur -17.5454 8.75674 20.5831
rtibia 22.1331
rfoot -6.50924 -19.4275
rtoes -16.7886
lfemur -20.4408 -10.3083 -15.5707
ltibia 28.9458
lfoot -24.2934 5.0814
ltoes 2.93584
80
root -24.0844 16.397 2.06043 -166.87 2.88553 -176.837
lowerback -13.3695 -1.39594 -4.71759
upperback -4.78224 -0.754599 2.37317
thorax 2.55881 -0.0882759 5.05887
lowerneck 12.3142 -0.318937 -7.42036
upperneck -9.84065 7.91235 36.1292
head -7.22564 3.62668 13.2475
rclavicle 8.82107e-016 2.48481e-015
rhumerus -34.0781 -10.6554 -86.6289
rradius 28.1215
rwrist 13.2554
rhand -4.66761 6.03196
rfingers 7.12502
rthumb 21.1127 -22.8386
lclavicle 8.82107e-016 2.48481e-015
lhumerus -35.383 31.2794 75.2456
lradius 13.7424
lwrist -58.4411
lhand 11.4317 23.1573
lfingers 7.12502
lthumb 36.483 49.3537
rfemur -17.6428 8.67405 20.6019
rtibia 22.0871
rfoot -6.64312 -19.2438
rtoes -17.2013
lfemur -20.5637 -10.2297 -15.5391
ltibia 29.026
lfoot -24.3173 5.15266
ltoes 2.70809
81
root -24.0866 16.3964 2.05839 -166.926 2.8874 -176.819
lowerback -13.3284 -1.39418 -4.71323
upperback -4.71796 -0.765009 2.37422
thorax 2.60521 -0.100967 5.05583
lowerneck 12.4143 -0.312399 -7.35584
upperneck -10.0845 8.01546 36.071
head -7.34294 3.64755 13.2132
rclavicle -7.03201e-015 2.05742e-014
rhumerus -34.8129 -10.3107 -86.7851
rradius 30.6122
rwrist 11.9041
rhand -3.46569 5.26474
rfingers 7.12502
rthumb 22.267 -23.4724
lclavicle -7.03201e-015 2.05742e-014
lhumerus -35.5002 31.8895 74.8881
lradius 13.7298
lwrist -59.1468
lhand 11.3728 22.9931
lfingers 7.12502
lthumb 36.4272 49.2035
rfemur -17.5736 8.35194 20.6606
rtibia 22.092
rfoot -6.66417 -18.9819
rtoes -17.5435
lfemur -20.502 -10.2379 -15.5606
ltibia 29.0759
lfoot -24.3036 5.31367
ltoes 2.26054
82
root -24.0899 16.3934 2.05484 -167.065 2.95083 -176.813
lowerback -13.1565 -1.40486 -4.72459
upperback -4.68441 -0.796335 2.40125
thorax 2.55145 -0.120181 5.08574
lowerneck 12.5594 -0.245079 -7.35209
upperneck -10.2918 8.14006 35.9511
head -7.4612 3.6713 13.1589
rclavicle -2.73329e-015 7.25564e-015
rhumerus -35.2646 -9.4601 -87.0442
rradius 32.1492
rwrist 10.1438
rhand -2.89535 4.67923
rfingers 7.12502
rthumb 22.8144 -23.9915
lclavicle -2.73329e-015 7.25564e-015
lhumerus -35.618 32.1613 74.6952
lradius 13.7175
lwrist -59.3621
lhand 11.2251 22.8486
lfingers 7.12502
lthumb 36.2874 49.0939
rfemur -17.4167 8.05498 20.6917
rtibia 22.0915
rfoot -6.73793 -18.6761
rtoes -17.9573
lfemur -20.3376 -10.7828 -15.5532
ltibia 29.1463
lfoot -24.2569 5.86459
ltoes 2.69109
83
root -24.0927 16.3932 2.05641 -167.042 2.88445 -176.774
lowerback -13.0448 -1.44933 -4.72651
upperback -4.6928 -0.863241 2.46336
thorax 2.49114 -0.151677 5.14232
lowerneck 12.6599 -0.193663 -7.32396
upperneck -10.562 8.23443 35.7537
head -7.57409 3.67677 13.0709
rclavicle 1.66234e-014 -4.57205e-015
rhumerus -35.5433 -9.13094 -87.0376
rradius 33.6364
rwrist 8.84583
rhand -2.25263 3.73364
rfingers 7.12502
rthumb 23.4311 -24.8598
lclavicle 1.66234e-014 -4.57205e-015
lhumerus -35.6221 32.2359 74.6682
lradius 13.7433
lwrist -59.5916
lhand 11.2969 22.6128
lfingers 7.12502
lthumb 36.3553 48.8412
rfemur -17.4514 7.62927 20.7806
rtibia 22.1115
rfoot -6.93222 -18.351
rtoes -18.0299
lfemur -20.3941 -10.6905 -15.5045
ltibia 29.1905
lfoot -24.3519 5.66072
ltoes 2.9941
84
root -24.0993 16.3914 2.05581 -167.064 2.91146 -176.632
lowerback -13.0013 -1.40901 -4.54955
upperback -4.60793 -0.846212 2.49505
thorax 2.5528 -0.152789 5.07723
lowerneck 12.5036 -0.30193 -7.23928
upperneck -10.6733 8.07134 35.645
head -7.51998 3.59613 13.028
rclavicle -2.54444e-014 2.04748e-014
rhumerus -35.6289 -9.09605 -87.0602
rradius 34.8457
rwrist 7.70008
rhand -2.26005 3.42305
rfingers 7.12502
rthumb 23.4239 -25.1713
lclavicle -2.54444e-014 2.04748e-014
lhumerus -35.3384 31.9192 75.0378
lradius 13.7939
lwrist -58.8524
lhand 10.9525 23.3265
lfingers 7.12502
lthumb 36.0292 49.6358
rfemur -17.4843 7.25724 20.9491
rtibia 22.2155
rfoot -7.12831 -18.0542
rtoes -18.3706
lfemur -20.339 -10.6233 -15.4088
ltibia 29.1683
lfoot -24.3673 5.73092
ltoes 2.71488
85
root -24.1052 16.3929 2.05594 -166.921 3.01271 -176.798
lowerback -13.2014 -1.43298 -4.70326
upperback -4.54131 -0.853979 2.44693
thorax 2.73318 -0.165265 5.11336
lowerneck 12.4466 -0.319632 -7.1234
upperneck -10.8682 8.09486 35.5188
head -7.56099 3.59164 12.955
rclavicle -4.28319e-015 1.98785e-015
rhumerus -35.5834 -9.11886 -87.0784
rradius 35.7541
rwrist 6.84192
rhand -2.39945 3.94557
rfingers 7.12502
rthumb 23.2902 -24.6657
lclavicle -4.28319e-015 1.98785e-015
lhumerus -35.1647 31.9478 75.1011
lradius 13.8457
lwrist -58.6444
lhand 10.8981 23.4028
lfingers 7.12502
lthumb 35.9776 49.7248
rfemur -17.7408 7.36965 20.6765
rtibia 22.3978
rfoot -7.18466 -18.1009
rtoes -18.6964
lfemur -20.4432 -10.5933 -15.6084
ltibia 29.0907
lfoot -24.3091 5.79443
ltoes 2.86405
86
root -24.1223 16.3954 2.06148 -166.742 3.206 -177.214
lowerback -13.3727 -1.4648 -5.02164
upperback -4.53544 -0.844397 2.37843
thorax 2.83365 -0.162514 5.22479
lowerneck 12.5571 -0.231735 -7.20657
upperneck -11.144 8.22076 35.3488
head -7.69187 3.614 12.903
rclavicle -5.53802e-015 1.57537e-014
rhumerus -35.6011 -9.05875 -86.8614
rradius 36.8004
rwrist 6.39166
rhand -1.61536 4.55472
rfingers 7.12502
rthumb 24.0423 -23.9594
lclavicle -5.53802e-015 1.57537e-014
lhumerus -34.9786 31.7439 75.4275
lradius 13.9112
lwrist -58.1747
lhand 11.1281 23.4052
lfingers 7.12502
lthumb 36.1955 49.6735
rfemur -18.1124 7.19133 20.1051
rtibia 22.6073
rfoot -7.34598 -17.8028
rtoes -19.0321
lfemur -20.5989 -10.8066 -16.0907
ltibia 28.9884
lfoot -24.0819 6.10348
ltoes 2.5793
87
root -24.1316 16.3967 2.06199 -166.515 3.26239 -177.424
lowerback -13.5724 -1.52576 -5.2249
upperback -4.58268 -0.878528 2.41031
thorax 2.89927 -0.174145 5.37028
lowerneck 12.7521 -0.138451 -7.30423
upperneck -11.459 8.31042 35.0786
head -7.83573 3.6033 12.8165
rclavicle -1.01567e-015 -4.67144e-015
rhumerus -35.8438 -8.55018 -86.9115
rradius 38.2007
rwrist 4.70545
rhand -1.63045 4.55382
rfingers 7.12502
rthumb 24.0278 -23.9622
lclavicle -1.01567e-015 -4.67144e-015
lhumerus -34.7309 30.9987 76.1303
lradius 14.0599
lwrist -57.1285
lhand 11.4562 23.7766
lfingers 7.12502
lthumb 36.5062 49.9671
rfemur -18.4899 6.58865 19.8883
rtibia 22.8166
rfoot -7.68215 -17.3853
rtoes -19.4868
lfemur -20.8042 -10.7626 -16.3245
ltibia 28.8833
lfoot -23.9754 6.12282
ltoes 1.92423
